<?xml version="1.0" encoding="UTF-8"?>
<svg id="Layer_1" data-name="Layer 1" xmlns="http://www.w3.org/2000/svg" viewBox="0 0 96.39 83.12">
  <defs>
    <style>
      .cls-1 {
        fill: #27b9f2;
      }

      .cls-1, .cls-2, .cls-3 {
        stroke-width: 0px;
      }

      .cls-2 {
        fill: #fcbf49;
      }

      .cls-4 {
        fill: none;
        stroke: #000;
        stroke-miterlimit: 10;
      }

      .cls-5 {
        letter-spacing: 0em;
      }

      .cls-3 {
        fill: #fff;
      }

      .cls-6 {
        fill: #000;
        font-family: Futura-CondensedMedium, Futura;
        font-size: 29.62px;
        font-weight: 500;
      }
    </style>
  </defs>
  <g>
    <g>
      <path class="cls-1" d="M74.96,39.31v3.72c0,1.01-.78,1.82-1.75,1.82H26.36c-.97,0-1.75-.81-1.75-1.82v-3.72h15.89c2.46,2.3,5.72,3.7,9.28,3.7s6.81-1.4,9.28-3.7h15.89Z"/>
      <path class="cls-1" d="M74.96,14.03v3.72h-15.89c-2.46-2.3-5.72-3.7-9.28-3.7s-6.81,1.4-9.28,3.7h-15.89v-3.72c0-1.01.78-1.82,1.75-1.82h13.95c.41,0,.76-.29.86-.7l1.68-6.99c.29-1.19,1.49-2.17,2.67-2.17h8.54c1.18,0,2.38.98,2.67,2.17l1.68,6.99c.1.41.45.7.86.7h13.95c.97,0,1.75.81,1.75,1.82h0ZM55.74,12.2c.57-.13.84-.66.72-1.15l-1.48-6.16c-.1-.41-.45-.7-.86-.7h-8.67c-.41,0-.76.29-.86.7l-1.51,6.3s0,0,0,0c-.02.6.42,1,.9,1h11.77,0Z"/>
      <path class="cls-3" d="M74.65,27.27c-.02.37-.02.74,0,1.11-.02-.11-.04-.22-.06-.33,0-.45,0-.91,0-1.36.02.19.04.38.07.58h0Z"/>
      <path class="cls-3" d="M68.26,37.04c-.74.01-1.47.03-2.21.04-.14-.04-.28-.08-.41-.12.87-.04,1.75,0,2.62.08h0Z"/>
      <path class="cls-3" d="M65.61,39.31h-6.55c-2.46,2.3-5.72,3.7-9.28,3.7s-6.81-1.4-9.28-3.7h-15.89v3.72c0,1.01.78,1.82,1.75,1.82h46.85c.97,0,1.75-.81,1.75-1.82v-3.72h-9.35ZM76.74,14.03v29.01c0,2.03-1.58,3.67-3.53,3.67H26.36c-1.95,0-3.53-1.64-3.53-3.67V14.03c0-2.03,1.58-3.67,3.53-3.67h13.25l1.34-5.57c.58-2.4,2.9-4.29,5.28-4.29h7.11c2.38,0,4.7,1.88,5.28,4.29l1.34,5.57h13.25c1.95,0,3.53,1.64,3.53,3.67h0ZM74.96,17.75v-3.72c0-1.01-.78-1.82-1.75-1.82h-13.95c-.41,0-.76-.29-.86-.7l-1.68-6.99c-.29-1.19-1.49-2.17-2.67-2.17h-8.54c-1.18,0-2.38.98-2.67,2.17l-1.68,6.99c-.1.41-.45.7-.86.7h-13.94c-.97,0-1.75.81-1.75,1.82v3.72h15.89c2.46-2.3,5.72-3.7,9.28-3.7s6.81,1.4,9.28,3.7h15.89ZM60.92,33.73c4.25-10.87-5.68-21.2-16.13-16.78-2.78,1.18-5,3.48-6.13,6.38-4.25,10.87,5.68,21.2,16.13,16.78,2.78-1.18,5-3.48,6.13-6.38Z"/>
      <path class="cls-3" d="M64.18,37.11s.09-.03.13-.05c.03.02.07.03.1.05-.08,0-.15,0-.23,0h0Z"/>
      <path class="cls-3" d="M62.19,36.86c.16.11.32.2.49.26-.38,0-.76,0-1.13,0,.09-.07.16-.18.19-.29.09.02.19.04.3.04.05,0,.11,0,.16,0Z"/>
      <path class="cls-2" d="M58.08,24.28c3.58,8.44-4.26,16.59-12.37,12.87-1.88-.86-3.38-2.43-4.21-4.38-3.58-8.44,4.26-16.59,12.37-12.87,1.88.86,3.38,2.43,4.21,4.38h0Z"/>
    </g>
    <g>
      <path class="cls-4" d="M73.21,10.36h-13.25l-1.34-5.57c-.58-2.4-2.9-4.29-5.28-4.29h-7.11c-2.38,0-4.7,1.88-5.28,4.29l-1.34,5.57h-13.25c-1.95,0-3.53,1.64-3.53,3.67v29.01c0,2.03,1.58,3.67,3.53,3.67h46.85c1.95,0,3.53-1.64,3.53-3.67V14.03c0-2.03-1.58-3.67-3.53-3.67Z"/>
      <path class="cls-4" d="M26.36,12.2h13.95c.41,0,.76-.29.86-.7l1.68-6.99c.29-1.19,1.49-2.17,2.67-2.17h8.54c1.18,0,2.38.98,2.67,2.17l1.68,6.99c.1.41.45.7.86.7h13.95c.97,0,1.75.81,1.75,1.82v3.72h-15.89c-2.46-2.3-5.72-3.7-9.28-3.7s-6.81,1.4-9.28,3.7h-15.9v-3.72c0-1.01.78-1.82,1.75-1.82Z"/>
      <path class="cls-4" d="M54.79,40.11c-10.45,4.42-20.39-5.91-16.13-16.78,1.13-2.9,3.35-5.2,6.13-6.38,10.45-4.42,20.39,5.91,16.13,16.78-1.13,2.9-3.35,5.2-6.13,6.38Z"/>
      <path class="cls-4" d="M65.61,39.31h9.35v3.72c0,1.01-.78,1.82-1.75,1.82H26.36c-.97,0-1.75-.81-1.75-1.82v-3.72h15.89c2.46,2.3,5.72,3.7,9.28,3.7s6.81-1.4,9.28-3.7h6.55,0Z"/>
      <path class="cls-4" d="M65.61,39.31v-.06"/>
      <path class="cls-4" d="M43.97,12.2h11.77c.57-.13.84-.66.72-1.15l-1.48-6.16c-.1-.41-.45-.7-.86-.7h-8.67c-.41,0-.76.29-.86.7l-1.51,6.3s0,0,0,0c-.02.6.42,1,.9,1h0Z"/>
      <path class="cls-4" d="M53.87,19.91c-8.11-3.72-15.95,4.43-12.37,12.87.83,1.95,2.33,3.52,4.21,4.38,8.11,3.72,15.95-4.43,12.37-12.87-.83-1.95-2.33-3.52-4.21-4.38h0Z"/>
    </g>
  </g>
  <text class="cls-6" transform="translate(0 74.76) scale(1.25 1)"><tspan x="0" y="0">Snap </tspan><tspan class="cls-5" x="52.55" y="0">B</tspan><tspan x="64.83" y="0">A</tspan></text>
</svg>